HIERARCHY
ROOT Root
{
  OFFSET 0.0 0.0 0.0
  CHANNELS 6 Xposition Yposition Zposition Zrotation Yrotation Xrotation
  JOINT Hips
  {
    OFFSET 0.0 100.0 0.0
    CHANNELS 6 Xposition Yposition Zposition Zrotation Yrotation Xrotation
    JOINT Spine1
    {
      OFFSET 5.003913 -0.037094 -0.013727
      CHANNELS 3 Zrotation Yrotation Xrotation
      JOINT Spine2
      {
        OFFSET 7.125363 -1e-06 0.0
        CHANNELS 3 Zrotation Yrotation Xrotation
        JOINT Chest
        {
          OFFSET 7.594027 1e-06 0.0
          CHANNELS 3 Zrotation Yrotation Xrotation
          JOINT Neck1
          {
            OFFSET 26.313086 -0.460272 -0.181672
            CHANNELS 3 Zrotation Yrotation Xrotation
            JOINT Neck2
            {
              OFFSET 8.045911 0.0 0.0
              CHANNELS 3 Zrotation Yrotation Xrotation
              JOINT Head
              {
                OFFSET 6.432774 0.0 0.0
                CHANNELS 3 Zrotation Yrotation Xrotation
                JOINT HeadEnd
                {
                  OFFSET 16.169773 0.06451 0.00362
                  CHANNELS 3 Zrotation Yrotation Xrotation
                }
                JOINT Jaw
                {
                  OFFSET 0.108741 3.12938 0.002639
                  CHANNELS 3 Zrotation Yrotation Xrotation
                }
                JOINT LeftEye
                {
                  OFFSET 4.45173 8.166359 3.206392
                  CHANNELS 3 Zrotation Yrotation Xrotation
                }
                JOINT RightEye
                {
                  OFFSET 4.436895 8.135758 -3.222429
                  CHANNELS 3 Zrotation Yrotation Xrotation
                }
              }
            }
          }
          JOINT LeftShoulder
          {
            OFFSET 23.218927 5.195579 1.621656
            CHANNELS 3 Zrotation Yrotation Xrotation
            JOINT LeftArm
            {
              OFFSET 15.902118 2e-06 -2e-06
              CHANNELS 3 Zrotation Yrotation Xrotation
              JOINT LeftForeArm
              {
                OFFSET 28.739307 0.0 -1e-06
                CHANNELS 3 Zrotation Yrotation Xrotation
                JOINT LeftHand
                {
                  OFFSET 27.093981 -4e-06 0.0
                  CHANNELS 3 Zrotation Yrotation Xrotation
                  JOINT LeftHandThumb1
                  {
                    OFFSET 2.276781 3.380274 0.83384
                    CHANNELS 3 Zrotation Yrotation Xrotation
                    JOINT LeftHandThumb2
                    {
                      OFFSET 4.705309 -1e-06 -1e-06
                      CHANNELS 3 Zrotation Yrotation Xrotation
                      JOINT LeftHandThumb3
                      {
                        OFFSET 2.798515 0.0 3e-06
                        CHANNELS 3 Zrotation Yrotation Xrotation
                        JOINT LeftHandThumbEnd
                        {
                          OFFSET 3.180793 4e-06 -4e-06
                          CHANNELS 3 Zrotation Yrotation Xrotation
                        }
                      }
                    }
                  }
                  JOINT LeftHandIndex1
                  {
                    OFFSET 3.247786 2.352677 0.137192
                    CHANNELS 3 Zrotation Yrotation Xrotation
                    JOINT LeftHandIndex2
                    {
                      OFFSET 6.367095 1e-06 0.0
                      CHANNELS 3 Zrotation Yrotation Xrotation
                      JOINT LeftHandIndex3
                      {
                        OFFSET 3.662364 0.0 0.0
                        CHANNELS 3 Zrotation Yrotation Xrotation
                        JOINT LeftHandIndex4
                        {
                          OFFSET 2.329242 4e-06 -4e-06
                          CHANNELS 3 Zrotation Yrotation Xrotation
                          JOINT LeftHandIndexEnd
                          {
                            OFFSET 2.767823 1e-06 0.0
                            CHANNELS 3 Zrotation Yrotation Xrotation
                          }
                        }
                      }
                    }
                  }
                  JOINT LeftHandMiddle1
                  {
                    OFFSET 3.163612 0.945023 -0.406112
                    CHANNELS 3 Zrotation Yrotation Xrotation
                    JOINT LeftHandMiddle2
                    {
                      OFFSET 6.276789 3e-06 0.0
                      CHANNELS 3 Zrotation Yrotation Xrotation
                      JOINT LeftHandMiddle3
                      {
                        OFFSET 4.35652 -1e-06 4e-06
                        CHANNELS 3 Zrotation Yrotation Xrotation
                        JOINT LeftHandMiddle4
                        {
                          OFFSET 2.996877 0.0 8e-06
                          CHANNELS 3 Zrotation Yrotation Xrotation
                          JOINT LeftHandMiddleEnd
                          {
                            OFFSET 2.323256 3e-06 -4e-06
                            CHANNELS 3 Zrotation Yrotation Xrotation
                          }
                        }
                      }
                    }
                  }
                  JOINT LeftHandRing1
                  {
                    OFFSET 2.882606 -0.309162 0.107445
                    CHANNELS 3 Zrotation Yrotation Xrotation
                    JOINT LeftHandRing2
                    {
                      OFFSET 6.033198 0.0 4e-06
                      CHANNELS 3 Zrotation Yrotation Xrotation
                      JOINT LeftHandRing3
                      {
                        OFFSET 4.350578 3e-06 0.0
                        CHANNELS 3 Zrotation Yrotation Xrotation
                        JOINT LeftHandRing4
                        {
                          OFFSET 2.651321 2e-06 -7e-06
                          CHANNELS 3 Zrotation Yrotation Xrotation
                          JOINT LeftHandRingEnd
                          {
                            OFFSET 1.937663 1e-06 -4e-06
                            CHANNELS 3 Zrotation Yrotation Xrotation
                          }
                        }
                      }
                    }
                  }
                  JOINT LeftHandPinky1
                  {
                    OFFSET 2.865315 -1.525436 0.575687
                    CHANNELS 3 Zrotation Yrotation Xrotation
                    JOINT LeftHandPinky2
                    {
                      OFFSET 5.54936 1e-06 -8e-06
                      CHANNELS 3 Zrotation Yrotation Xrotation
                      JOINT LeftHandPinky3
                      {
                        OFFSET 3.070974 0.0 -4e-06
                        CHANNELS 3 Zrotation Yrotation Xrotation
                        JOINT LeftHandPinky4
                        {
                          OFFSET 1.549672 1e-06 0.0
                          CHANNELS 3 Zrotation Yrotation Xrotation
                          JOINT LeftHandPinkyEnd
                          {
                            OFFSET 1.952123 0.0 0.0
                            CHANNELS 3 Zrotation Yrotation Xrotation
                          }
                        }
                      }
                    }
                  }
                }
              }
            }
          }
          JOINT RightShoulder
          {
            OFFSET 23.161716 5.296122 -1.380114
            CHANNELS 3 Zrotation Yrotation Xrotation
            JOINT RightArm
            {
              OFFSET -16.027195 -2e-06 1.1e-05
              CHANNELS 3 Zrotation Yrotation Xrotation
              JOINT RightForeArm
              {
                OFFSET -28.736639 4e-06 2e-06
                CHANNELS 3 Zrotation Yrotation Xrotation
                JOINT RightHand
                {
                  OFFSET -27.133619 6e-06 0.0
                  CHANNELS 3 Zrotation Yrotation Xrotation
                  JOINT RightHandThumb1
                  {
                    OFFSET -2.274328 -3.351035 -0.83067
                    CHANNELS 3 Zrotation Yrotation Xrotation
                    JOINT RightHandThumb2
                    {
                      OFFSET -4.703594 -3e-06 2e-06
                      CHANNELS 3 Zrotation Yrotation Xrotation
                      JOINT RightHandThumb3
                      {
                        OFFSET -2.794935 -4e-06 -3e-06
                        CHANNELS 3 Zrotation Yrotation Xrotation
                        JOINT RightHandThumbEnd
                        {
                          OFFSET -3.183852 4e-06 1e-06
                          CHANNELS 3 Zrotation Yrotation Xrotation
                        }
                      }
                    }
                  }
                  JOINT RightHandIndex1
                  {
                    OFFSET -3.253496 -2.33755 -0.127667
                    CHANNELS 3 Zrotation Yrotation Xrotation
                    JOINT RightHandIndex2
                    {
                      OFFSET -6.344434 0.0 0.0
                      CHANNELS 3 Zrotation Yrotation Xrotation
                      JOINT RightHandIndex3
                      {
                        OFFSET -3.654871 0.0 -8e-06
                        CHANNELS 3 Zrotation Yrotation Xrotation
                        JOINT RightHandIndex4
                        {
                          OFFSET -2.327586 -1e-06 0.0
                          CHANNELS 3 Zrotation Yrotation Xrotation
                          JOINT RightHandIndexEnd
                          {
                            OFFSET -2.770001 3e-06 8e-06
                            CHANNELS 3 Zrotation Yrotation Xrotation
                          }
                        }
                      }
                    }
                  }
                  JOINT RightHandMiddle1
                  {
                    OFFSET -3.168223 -0.944764 0.411762
                    CHANNELS 3 Zrotation Yrotation Xrotation
                    JOINT RightHandMiddle2
                    {
                      OFFSET -6.266691 -1e-06 -4e-06
                      CHANNELS 3 Zrotation Yrotation Xrotation
                      JOINT RightHandMiddle3
                      {
                        OFFSET -4.348901 0.0 0.0
                        CHANNELS 3 Zrotation Yrotation Xrotation
                        JOINT RightHandMiddle4
                        {
                          OFFSET -3.00024 2e-06 -4e-06
                          CHANNELS 3 Zrotation Yrotation Xrotation
                          JOINT RightHandMiddleEnd
                          {
                            OFFSET -2.321477 -4e-06 -4e-06
                            CHANNELS 3 Zrotation Yrotation Xrotation
                          }
                        }
                      }
                    }
                  }
                  JOINT RightHandRing1
                  {
                    OFFSET -2.885654 0.293261 -0.119232
                    CHANNELS 3 Zrotation Yrotation Xrotation
                    JOINT RightHandRing2
                    {
                      OFFSET -6.032835 -1e-06 -4e-06
                      CHANNELS 3 Zrotation Yrotation Xrotation
                      JOINT RightHandRing3
                      {
                        OFFSET -4.33881 0.0 -4e-06
                        CHANNELS 3 Zrotation Yrotation Xrotation
                        JOINT RightHandRing4
                        {
                          OFFSET -2.654903 -4e-06 -4e-06
                          CHANNELS 3 Zrotation Yrotation Xrotation
                          JOINT RightHandRingEnd
                          {
                            OFFSET -1.935122 0.0 4e-06
                            CHANNELS 3 Zrotation Yrotation Xrotation
                          }
                        }
                      }
                    }
                  }
                  JOINT RightHandPinky1
                  {
                    OFFSET -2.866241 1.503904 -0.60527
                    CHANNELS 3 Zrotation Yrotation Xrotation
                    JOINT RightHandPinky2
                    {
                      OFFSET -5.553177 -2e-06 0.0
                      CHANNELS 3 Zrotation Yrotation Xrotation
                      JOINT RightHandPinky3
                      {
                        OFFSET -3.062664 -1e-06 -4e-06
                        CHANNELS 3 Zrotation Yrotation Xrotation
                        JOINT RightHandPinky4
                        {
                          OFFSET -1.546529 2e-06 4e-06
                          CHANNELS 3 Zrotation Yrotation Xrotation
                          JOINT RightHandPinkyEnd
                          {
                            OFFSET -1.952341 0.0 -4e-06
                            CHANNELS 3 Zrotation Yrotation Xrotation
                          }
                        }
                      }
                    }
                  }
                }
              }
            }
          }
        }
      }
    }
    JOINT LeftLeg
    {
      OFFSET -8.443107 2.567604 10.043214
      CHANNELS 3 Zrotation Yrotation Xrotation
      JOINT LeftShin
      {
        OFFSET 43.229198 1e-06 -1e-06
        CHANNELS 3 Zrotation Yrotation Xrotation
        JOINT LeftFoot
        {
          OFFSET 42.298611 1e-06 1e-06
          CHANNELS 3 Zrotation Yrotation Xrotation
          JOINT LeftToeBase
          {
            OFFSET 14.165858 1e-06 0.0
            CHANNELS 3 Zrotation Yrotation Xrotation
            JOINT LeftToeEnd
            {
              OFFSET 6.7141 -0.234461 0.0
              CHANNELS 3 Zrotation Yrotation Xrotation
            }
          }
        }
      }
    }
    JOINT RightLeg
    {
      OFFSET -8.303923 2.592729 -10.047278
      CHANNELS 3 Zrotation Yrotation Xrotation
      JOINT RightShin
      {
        OFFSET -43.369682 0.0 1e-06
        CHANNELS 3 Zrotation Yrotation Xrotation
        JOINT RightFoot
        {
          OFFSET -42.260784 4e-06 2e-06
          CHANNELS 3 Zrotation Yrotation Xrotation
          JOINT RightToeBase
          {
            OFFSET -14.222245 -2e-06 -1e-06
            CHANNELS 3 Zrotation Yrotation Xrotation
            JOINT RightToeEnd
            {
              OFFSET -6.660062 0.232574 -2e-06
              CHANNELS 3 Zrotation Yrotation Xrotation
            }
          }
        }
      }
    }
  }
}
MOTION
Frames: 4
Frame Time: 0.03333333333333333
0.0 0.0 0.0 0.0 -0.0 0.0 0.79792 99.626289 -1.595715 89.106789 3.500281 89.283287 -2.372759 -1.071472 0.07869 -11.521586 -0.799749 -0.368107 20.982998 -1.064607 -2.432255 18.522345 4.788461 2.310977 -2.596061 -0.755461 -0.125408 -33.730698 2.966756 -2.978034 6e-06 -0.0 0.0 0.020579 0.002564 0.032652 0.152676 -0.026842 0.05928 0.146673 0.035385 0.010419 -151.926788 -63.897316 168.615112 29.366808 -41.074459 13.773052 29.352413 0.334454 0.164688 -4.579102 -9.773351 15.647015 17.636627 -26.322733 52.41119 -19.466656 -14.395596 29.410385 -1e-06 -8.774821 -2e-06 16.530138 -18.066845 5.949811 -0.609777 -1.795654 -3.889328 -4.807088 -11.046811 -2.93785 6e-06 -20.976019 -2e-06 -5.01997 -25.033556 -4.03188 7e-06 -1e-06 1e-06 -10.634535 -5.686969 -3.565589 10.573277 -17.922955 -3.113902 3e-06 -13.82121 1e-06 -0.501776 -31.181505 -4.027012 -10.879301 -59.56078 6.838185 -13.982714 -7.150197 -2.875045 13.77273 -8.401493 -3.21824 0.347739 -34.211555 0.771652 -0.963027 -17.733372 2.621019 -1e-06 -1e-06 0.0 -17.346413 -20.095217 -4.201783 21.757557 -1.638375 3.866426 2e-06 -6.338824 3e-06 -1.697586 -22.591745 -6.194008 -1e-06 -2e-06 0.0 41.180107 -71.220856 152.999237 36.272011 -56.580944 4.419711 31.814871 -0.206491 0.081793 -2.446385 -10.273631 23.534918 22.182121 -20.375898 49.933323 -16.70182 -16.743532 28.476534 -4e-06 -12.690606 -1e-06 16.125759 -17.736383 2.446715 -0.105919 -1.513856 -4.275881 -5.039042 -5.612872 -2.953559 5e-06 -11.020525 -3e-06 -6.111298 -15.895332 -3.840472 0.0 0.0 1e-06 -10.283373 -5.680289 -4.341842 11.028297 -11.302407 -2.372633 -1.384268 -14.238583 -6.320121 -0.625436 -26.924196 -3.827603 -4.593815 -49.854469 -3.691185 -13.708527 -7.363476 -3.720941 18.141153 -14.052743 -3.242677 7e-06 -18.78727 -2e-06 -0.429709 -8.456045 2.555503 0.0 1e-06 -0.0 -15.923539 -20.094486 -5.473586 30.419222 -7.190827 1.735922 3e-06 -8.162927 -2e-06 -1.861901 -22.861473 -6.167942 -1e-06 -3e-06 -1e-06 -178.833862 -6.264793 -9.876835 15.667886 0.025339 0.177519 -81.998619 6.632637 -5.050311 -5.204095 1.409076 2.144594 -0.999999 -0.0 -0.0 -0.393913 -2.064848 4.567827 15.169333 -0.092186 0.158165 -80.78093 4.43085 -4.390226 -5.089159 0.789076 1.707868 -1.000003 -1e-06 0.0 
0.0 0.0 0.0 0.0 -0.0 0.0 0.822056 99.623497 -1.618726 89.099586 3.498938 89.279709 -2.375244 -1.06158 0.085861 -11.523354 -0.786374 -0.355791 20.981525 -1.086851 -2.44846 18.531086 4.788497 2.303289 -2.593744 -0.762981 -0.136185 -33.731777 2.973784 -3.018351 5e-06 0.0 0.0 0.017306 0.004443 0.038811 0.154595 -0.023937 0.065391 0.148811 0.036256 0.016655 -151.994965 -63.852016 168.673935 29.378044 -41.035885 13.749678 29.337831 0.333434 0.180215 -4.581617 -9.749181 15.492874 17.636629 -26.322727 52.411186 -19.466658 -14.395597 29.410389 -0.0 -8.774821 -2e-06 16.503046 -18.067041 5.943345 -0.609776 -1.795653 -3.889326 -4.807088 -11.04681 -2.93785 3e-06 -20.976019 -1e-06 -5.01997 -25.03356 -4.031881 7e-06 1e-06 1e-06 -10.634533 -5.686971 -3.565586 10.573272 -17.922951 -3.113903 2e-06 -13.821209 0.0 -0.501781 -31.181501 -4.027014 -10.85154 -59.552391 6.805389 -13.982713 -7.150198 -2.875043 13.772727 -8.401491 -3.21824 0.347734 -34.211552 0.771654 -0.963031 -17.73337 2.62102 0.0 0.0 0.0 -17.346416 -20.095219 -4.20178 21.757555 -1.638373 3.866427 2e-06 -6.338824 1e-06 -1.697587 -22.591743 -6.194006 -1e-06 -1e-06 -1e-06 41.232037 -71.230469 152.945969 36.306953 -56.610889 4.4467 31.834885 -0.198312 0.093928 -2.454979 -10.245094 23.489431 22.182117 -20.3759 49.933334 -16.701813 -16.743526 28.476534 -2e-06 -12.690602 1e-06 16.124317 -17.730515 2.448642 -0.105919 -1.513856 -4.275882 -5.039042 -5.612873 -2.953556 4e-06 -11.020527 -1e-06 -6.111297 -15.895338 -3.840474 -1e-06 -0.0 1e-06 -10.28337 -5.680287 -4.341843 11.028292 -11.302406 -2.372636 -1.384269 -14.238581 -6.320121 -0.625438 -26.924194 -3.827602 -4.593941 -49.84938 -3.690425 -13.708527 -7.363477 -3.720943 18.141151 -14.052741 -3.242675 6e-06 -18.787271 -1e-06 -0.42971 -8.456043 2.555504 1e-06 -0.0 -0.0 -15.923536 -20.094486 -5.473588 30.419218 -7.190827 1.735926 2e-06 -8.162927 -1e-06 -1.8619 -22.861473 -6.167943 -1e-06 -3e-06 -1e-06 -178.880356 -6.263072 -9.85547 15.744305 0.024026 0.167951 -82.025085 6.620073 -5.037739 -5.191437 1.415805 2.145338 -0.999998 -0.0 -0.0 -0.410844 -2.068511 4.57274 15.186943 -0.091921 0.157134 -80.782791 4.447936 -4.415795 -5.069161 0.787623 1.705739 -1.000003 -0.0 -0.0 
0.0 0.0 0.0 0.0 -0.0 0.0 0.851066 99.623718 -1.635322 89.096275 3.484181 89.279686 -2.374653 -1.056384 0.08842 -11.533583 -0.77689 -0.348363 20.97784 -1.101347 -2.467725 18.53858 4.794793 2.311009 -2.598916 -0.782331 -0.160497 -33.750561 2.957145 -3.022809 6e-06 -0.0 0.0 0.012994 0.005759 0.042329 0.149907 -0.022535 0.067184 0.143118 0.037543 0.021347 -152.042557 -63.810844 168.727188 29.417782 -41.005581 13.659193 29.304489 0.319696 0.187784 -4.556225 -9.697701 15.366083 17.636631 -26.322729 52.411201 -19.466661 -14.395598 29.410395 0.0 -8.774822 -3e-06 16.47641 -18.067099 5.926287 -0.609776 -1.795653 -3.88933 -4.80709 -11.04681 -2.937851 4e-06 -20.976019 -2e-06 -5.019973 -25.03356 -4.031879 6e-06 0.0 1e-06 -10.634535 -5.686971 -3.56559 10.573277 -17.922953 -3.113901 2e-06 -13.821209 1e-06 -0.501776 -31.181505 -4.027013 -10.814363 -59.518257 6.743286 -13.982716 -7.150198 -2.875046 13.772731 -8.401493 -3.21824 0.347736 -34.211555 0.771653 -0.963031 -17.73337 2.621022 -1e-06 0.0 0.0 -17.346422 -20.095219 -4.201782 21.757565 -1.638375 3.866429 2e-06 -6.338826 2e-06 -1.697588 -22.591749 -6.194007 -2e-06 -1e-06 -2e-06 41.275532 -71.229675 152.927887 36.374138 -56.598415 4.416906 31.843739 -0.181988 0.107068 -2.473798 -10.23069 23.44961 22.182114 -20.375895 49.933319 -16.701817 -16.74353 28.47653 -3e-06 -12.690601 -1e-06 16.119322 -17.723429 2.446337 -0.10592 -1.513855 -4.275884 -5.03904 -5.61287 -2.953553 5e-06 -11.020521 -3e-06 -6.111296 -15.895329 -3.840471 0.0 0.0 1e-06 -10.28337 -5.680288 -4.341836 11.028296 -11.302404 -2.372633 -1.384268 -14.23858 -6.32012 -0.625436 -26.924187 -3.827601 -4.582082 -49.844933 -3.702037 -13.708524 -7.363474 -3.720941 18.14115 -14.052738 -3.242676 6e-06 -18.787268 -0.0 -0.429711 -8.456039 2.555504 -0.0 -0.0 1e-06 -15.923534 -20.094481 -5.473586 30.419214 -7.190827 1.735925 4e-06 -8.162925 -2e-06 -1.861898 -22.861467 -6.167937 -1e-06 -2e-06 -1e-06 -178.923828 -6.256922 -9.843835 15.79247 0.026992 0.156406 -82.03804 6.616377 -5.006522 -5.167824 1.410107 2.142101 -0.999998 -0.0 0.0 -0.429213 -2.085358 4.5714 15.180301 -0.089186 0.152663 -80.774231 4.489848 -4.455479 -5.037587 0.787778 1.703858 -1.000001 -1e-06 0.0 
0.0 0.0 0.0 0.0 -0.0 0.0 0.881632 99.627342 -1.648823 89.094734 3.472986 89.269485 -2.366018 -1.058119 0.0833 -11.537605 -0.773099 -0.355058 20.966209 -1.111894 -2.458975 18.546202 4.806355 2.311682 -2.61673 -0.800801 -0.177395 -33.781128 2.950599 -2.993661 6e-06 -0.0 0.0 0.008586 0.005751 0.04277 0.137948 -0.021112 0.065868 0.130732 0.036059 0.022866 -152.072769 -63.778 168.776962 29.443699 -40.98167 13.55061 29.275707 0.311729 0.187333 -4.503069 -9.639876 15.283738 17.636629 -26.322731 52.411186 -19.466658 -14.395597 29.410389 0.0 -8.774821 -3e-06 16.453936 -18.057865 5.913596 -0.609777 -1.795654 -3.889327 -4.807087 -11.046811 -2.937851 3e-06 -20.976019 -1e-06 -5.019974 -25.033556 -4.031878 5e-06 0.0 1e-06 -10.634534 -5.686973 -3.565588 10.573272 -17.922951 -3.113903 2e-06 -13.821211 -0.0 -0.501782 -31.181505 -4.027013 -10.771989 -59.489418 6.672865 -13.982714 -7.150199 -2.875041 13.772729 -8.401491 -3.218243 0.347732 -34.211555 0.771655 -0.963029 -17.733372 2.621018 -1e-06 0.0 0.0 -17.346418 -20.095219 -4.201779 21.757555 -1.638371 3.866426 1e-06 -6.338825 1e-06 -1.697588 -22.591751 -6.194007 -2e-06 -2e-06 -1e-06 41.287933 -71.228256 152.956635 36.435982 -56.567284 4.359078 31.837513 -0.151119 0.118542 -2.462386 -10.220198 23.346649 22.182114 -20.375895 49.933319 -16.701811 -16.743528 28.476528 -2e-06 -12.690601 0.0 16.110497 -17.705212 2.428901 -0.10592 -1.513856 -4.275881 -5.039042 -5.612872 -2.953557 3e-06 -11.020524 -2e-06 -6.1113 -15.895332 -3.840474 0.0 0.0 1e-06 -10.283369 -5.680286 -4.341835 11.028292 -11.302404 -2.372635 -1.384269 -14.238579 -6.320119 -0.625439 -26.924183 -3.8276 -4.546727 -49.810448 -3.7348 -13.708526 -7.363477 -3.720941 18.14115 -14.052739 -3.242675 5e-06 -18.787271 0.0 -0.429713 -8.456046 2.555503 1e-06 -0.0 -0.0 -15.923536 -20.094482 -5.473587 30.41921 -7.190824 1.735929 3e-06 -8.162925 -1e-06 -1.861903 -22.861467 -6.167943 0.0 -3e-06 -0.0 -178.93483 -6.247532 -9.866941 15.797475 0.031767 0.148615 -82.032524 6.614274 -4.981546 -5.146978 1.396054 2.139 -1.0 -0.0 0.0 -0.433279 -2.109066 4.564051 15.139024 -0.087151 0.147765 -80.745544 4.571845 -4.476531 -4.992446 0.783894 1.702585 -1.000002 -0.0 0.0 
